<svg version="1.1" xmlns="http://www.w3.org/2000/svg" viewBox="0 0 652 788" width="652" height="788">
  <!-- svg-source:excalidraw -->
  
  <defs>
    <style>
      @font-face {
        font-family: "Virgil";
        src: url("/fonts/Virgil.woff2");
      }
      @font-face {
        font-family: "Cascadia";
        src: url("/fonts/Cascadia.woff2");
      }
    </style>
  </defs>
  <rect x="0" y="0" width="652" height="788" fill="#000"></rect><g stroke-linecap="round"><g transform="translate(346.1508968908553 473.4992674288454) rotate(270.2001943540179 -0.019212320536837524 194.70161500281614)"><path d="M-0.88 -0.25 C-0.86 64.75, 0.03 324.56, 0.04 389.49 M0.86 -1.43 C0.73 63.78, -1.02 325.54, -0.89 390.84" stroke="#000000" stroke-width="1" fill="none"></path></g></g><g stroke-linecap="round"><g transform="translate(153.8208959794523 280.9896163360884) rotate(0.03685687714617706 0.15902867107652696 194.54606511707374)"><path d="M-0.25 0.04 C-0.23 65.01, -0.31 324.03, -0.36 388.99 M1.81 -0.99 C1.69 64.19, -0.93 324.74, -1.49 390.08" stroke="#000000" stroke-width="1" fill="none"></path></g></g><g stroke-linecap="round" transform="translate(328.2748824925442 455.0112649009742) rotate(270.2001943540179 190.62677246803554 25.647774155567788)"><path d="M-0.3 1.97 L382.29 0.85 L380.51 51.74 L0.53 50.11" stroke="none" stroke-width="0" fill="#ced4da"></path><path d="M-0.53 -0.05 C115.61 1.16, 231.86 0.78, 380.85 0.43 M0.15 0.36 C127.73 1.45, 255.22 1.82, 380.95 -0.08 M381.33 1.72 C379.72 11.73, 382.76 24.31, 382.87 51.62 M380.68 -0.28 C381.57 19.51, 381.09 37.4, 381.67 50.89 M381.25 52.38 C264.66 53.6, 147.05 52.09, 0.26 51.69 M381.22 51.78 C265.75 49.23, 150.66 49.42, 0.38 51.6 M-0.11 50.27 C0.48 35.09, -1.87 23.38, 1.13 0 M-0.72 52.1 C0.67 36.39, 0.46 22.36, 0.95 -0.2" stroke="#000000" stroke-width="1" fill="none"></path></g><g stroke-linecap="round" transform="translate(203.74511763389722 571.0335125430033) rotate(270.2001943540179 72.8396786018125 25.647774155567788)"><path d="M1.97 1.04 L146.53 -0.74 L146.13 51.82 L-1.19 52.75" stroke="none" stroke-width="0" fill="#ced4da"></path><path d="M-0.08 0.15 C38.58 2.02, 77.32 -0.03, 146.4 0.68 M0.6 0.5 C32.29 0.23, 65.36 -0.88, 145.55 -0.7 M147.39 -1.4 C145.69 15.71, 146.48 29.77, 146 52.52 M145.4 0.57 C147.12 12.96, 146.49 26.17, 145.27 51.37 M147.49 52.57 C94.19 52.15, 38.29 51.72, 0.66 51.34 M146.5 50.75 C114.65 50.82, 84.48 51.85, 0.5 51.08 M-1.03 52.14 C-1.99 30.74, 0.6 14.33, 0 -0.45 M0.8 52.26 C-0.53 33.78, -0.34 15.71, -0.2 -0.15" stroke="#000000" stroke-width="1" fill="none"></path></g><g transform="translate(-31.5 471.5) rotate(270 58.5 17)"><text x="0" y="27" font-family="Cascadia, Segoe UI Emoji" font-size="28px" fill="#fff" text-anchor="start" style="white-space: pre;" direction="ltr">RT (ms)</text></g><g stroke-linecap="round"><g transform="translate(130 290) rotate(0 0.23117893808986878 190.34765932885)"><path d="M0.98 0.59 C1.02 63.81, -0.83 316.42, -0.89 379.55 M0.04 -0.15 C0.55 63.23, 1.33 317.44, 1.35 380.85" stroke="#fff" stroke-width="1" fill="none"></path></g></g><g transform="translate(30 70) rotate(0 165 51)"><text x="0" y="27" font-family="Cascadia, Segoe UI Emoji" font-size="28px" fill="#fff" text-anchor="start" style="white-space: pre;" direction="ltr">H or K - press left</text><text x="0" y="61" font-family="Cascadia, Segoe UI Emoji" font-size="28px" fill="#fff" text-anchor="start" style="white-space: pre;" direction="ltr"></text><text x="0" y="95" font-family="Cascadia, Segoe UI Emoji" font-size="28px" fill="#fff" text-anchor="start" style="white-space: pre;" direction="ltr">S or C - press right</text></g><g transform="translate(410 710) rotate(0 116 34)"><text x="116" y="27" font-family="Cascadia, Segoe UI Emoji" font-size="28px" fill="#fff" text-anchor="middle" style="white-space: pre;" direction="ltr">incompatible</text><text x="116" y="61" font-family="Cascadia, Segoe UI Emoji" font-size="28px" fill="#fff" text-anchor="middle" style="white-space: pre;" direction="ltr">(e.g. SSSKSSS)</text></g><g transform="translate(150 710) rotate(0 116 34)"><text x="116" y="27" font-family="Cascadia, Segoe UI Emoji" font-size="28px" fill="#fff" text-anchor="middle" style="white-space: pre;" direction="ltr">compatible</text><text x="116" y="61" font-family="Cascadia, Segoe UI Emoji" font-size="28px" fill="#fff" text-anchor="middle" style="white-space: pre;" direction="ltr">(e.g. HHHKHHH)</text></g><g stroke-linecap="round"><g transform="translate(110 670) rotate(0 250.12927590087054 0.6683523103314997)"><path d="M-0.37 0.61 C82.87 0.62, 417.34 0.02, 500.63 -0.06 M1.63 -0.11 C84.66 0.1, 417.25 1.17, 500.02 1.45" stroke="#fff" stroke-width="1" fill="none"></path></g></g><g stroke-linecap="round"><g transform="translate(110 530) rotate(0 10.665746624614115 -0.4716895469231872)"><path d="M-0.49 -0.06 C2.86 0.04, 16.04 0.34, 19.41 0.47 M1.46 -1.14 C5.27 -1.38, 18.92 -1.38, 21.82 -1.41" stroke="#fff" stroke-width="1" fill="none"></path></g></g><g stroke-linecap="round"><g transform="translate(110 390) rotate(0 9.965353482156047 -0.522880653468917)"><path d="M0.47 -0.25 C3.92 -0.28, 17.48 -0.73, 20.68 -0.76 M-0.75 -1.42 C2.62 -1.26, 16.85 0.03, 20.09 0.38" stroke="#fff" stroke-width="1" fill="none"></path></g></g><g transform="translate(50 650) rotate(0 25.5 17)"><text x="25.5" y="27" font-family="Cascadia, Segoe UI Emoji" font-size="28px" fill="#fff" text-anchor="middle" style="white-space: pre;" direction="ltr">400</text></g><g transform="translate(50 510) rotate(0 25.5 17)"><text x="25.5" y="27" font-family="Cascadia, Segoe UI Emoji" font-size="28px" fill="#fff" text-anchor="middle" style="white-space: pre;" direction="ltr">450</text></g><g transform="translate(50 370) rotate(0 25.5 17)"><text x="25.5" y="27" font-family="Cascadia, Segoe UI Emoji" font-size="28px" fill="#fff" text-anchor="middle" style="white-space: pre;" direction="ltr">500</text></g><g stroke-linecap="round" transform="translate(10 30) rotate(0 180 80)"><path d="M0.21 1.1 C97.22 1.68, 196.45 1.66, 359.22 0.7 M-0.63 0.42 C92.58 -0.17, 183.44 0.05, 360.5 0.38 M361.27 1.41 C359.42 35.96, 359.72 70.59, 361.26 159.46 M360.25 0.47 C359.5 57.78, 358.85 115.59, 360.44 160.98 M359.78 161.02 C280.76 161.23, 202.46 160.45, 0.28 160.78 M359.58 159.74 C227.8 159.16, 96.22 159.8, 0.45 159.64 M1.49 160.39 C-0.61 125.23, -0.3 84.63, 0.03 -0.03 M0.03 159.7 C-1.65 121.48, -1.52 84.3, 0.48 0.35" stroke="#fff" stroke-width="1" fill="none"></path></g><g stroke-linecap="round" transform="translate(22 10) rotate(0 110 20)"><path d="M0.92 1.67 L221.01 1.64 L220.4 39.09 L1.32 41.54" stroke="none" stroke-width="0" fill="#000"></path><path d="M-0.3 0.76 C71.17 -0.49, 137.39 1.42, 219.7 1.39 M-0.13 0.19 C52.74 1.54, 104.13 0.85, 219.43 -0.35 M220.3 1.41 C218.52 8.86, 219.2 20.88, 221.49 40.39 M219.01 0.02 C220.37 9.46, 221.23 19.63, 220.03 39.7 M221.66 40.84 C161.38 39.63, 101.77 38, 0.26 38.3 M219.46 39.21 C135.97 39.2, 52.71 39.41, -0.8 39.21 M-0.2 38.54 C0.39 29.62, 1.82 20.22, 0.98 -0.9 M-0.43 39.61 C-0.24 25.51, 0.76 8.85, -0.67 0.62" stroke="#fff" stroke-width="1" fill="none"></path></g><g transform="translate(30 10) rotate(0 99.5 17)"><text x="99.5" y="27" font-family="Cascadia, Segoe UI Emoji" font-size="28px" fill="#fff" text-anchor="middle" style="white-space: pre;" direction="ltr">INSTRUCTIONS</text></g></svg>